<svg width="816" height="619" xmlns="http://www.w3.org/2000/svg" xmlns:xlink="http://www.w3.org/1999/xlink" xml:space="preserve" overflow="hidden"><g transform="translate(-352 -46)"><g><g><g><g><path d="M45.3343 0 175.262 0" stroke="#000000" stroke-width="3.84189" stroke-linecap="butt" stroke-linejoin="miter" stroke-miterlimit="4" stroke-opacity="1" fill="none" fill-rule="nonzero" transform="matrix(-0.234117 0.97256 -0.972187 -0.234207 773.277 88.5075)"/><path d="M-19.1036 0-21.2261 7.07538 0 0-21.2261-7.07538Z" fill="#000000" fill-rule="nonzero" fill-opacity="1" transform="matrix(-0.234117 0.97256 -0.972187 -0.234207 727.773 277.54)"/><path d="M69.19 0C71.3118 -6.82456e-16 73.0319 1.72007 73.0319 3.84189L73.0319 16.1359C73.0319 18.2577 71.3118 19.9778 69.19 19.9778L3.84189 19.9778C1.72007 19.9778-1.46556e-06 18.2577-1.46556e-06 16.1359L-1.46556e-06 3.84189C-1.46556e-06 1.72007 1.72007 -6.82456e-16 3.84189 -6.82456e-16Z" fill="#FFFFFF" fill-rule="nonzero" fill-opacity="1" transform="matrix(0.234117 -0.97256 0.972187 0.234207 729.195 228.954)"/><text fill="#000000" fill-opacity="1" font-family="Arial,Arial_MSFontService,sans-serif" font-style="normal" font-variant="normal" font-weight="400" font-stretch="normal" font-size="16" text-anchor="start" direction="ltr" writing-mode="lr-tb" unicode-bidi="normal" text-decoration="none" transform="matrix(0.17989 -0.747293 0.747007 0.179959 743.135 228)">ATTENDED</text><path d="M45.3353 0 279.721 0" stroke="#000000" stroke-width="3.84198" stroke-linecap="butt" stroke-linejoin="miter" stroke-miterlimit="4" stroke-opacity="1" fill="none" fill-rule="nonzero" transform="matrix(0.940459 -0.339906 0.339776 0.94082 393.491 438.613)"/><path d="M-19.104 0-21.2266 7.07554 0 0-21.2266-7.07554Z" fill="#000000" fill-rule="nonzero" fill-opacity="1" transform="matrix(0.940459 -0.339906 0.339776 0.94082 674.524 337.04)"/><path d="M69.1917 0C71.3135 -6.82472e-16 73.0336 1.72011 73.0336 3.84198L73.0336 16.1363C73.0336 18.2582 71.3135 19.9783 69.1917 19.9783L3.84198 19.9783C1.72011 19.9783-1.4656e-06 18.2582-1.4656e-06 16.1363L-1.4656e-06 3.84198C-1.4656e-06 1.72011 1.72011 -6.82472e-16 3.84198 -6.82472e-16Z" fill="#FFFFFF" fill-rule="nonzero" fill-opacity="1" transform="matrix(0.940459 -0.339906 0.339776 0.94082 508.606 386.383)"/><text fill="#000000" fill-opacity="1" font-family="Arial,Arial_MSFontService,sans-serif" font-style="normal" font-variant="normal" font-weight="400" font-stretch="normal" font-size="16" text-anchor="start" direction="ltr" writing-mode="lr-tb" unicode-bidi="normal" text-decoration="none" transform="matrix(0.722645 -0.261183 0.261082 0.722922 516.776 398)">ATTENDED</text><path d="M45.334 0 352.497 0" stroke="#000000" stroke-width="3.84186" stroke-linecap="butt" stroke-linejoin="miter" stroke-miterlimit="4" stroke-opacity="1" fill="none" fill-rule="nonzero" transform="matrix(-0.980961 -0.194204 0.194129 -0.981338 1126.16 402.601)"/><path d="M-19.1034 0-21.226 7.07533 0 0-21.226-7.07533Z" fill="#000000" fill-rule="nonzero" fill-opacity="1" transform="matrix(-0.980961 -0.194204 0.194129 -0.981338 761.631 330.434)"/><path d="M69.1896 0C71.3114 -6.82452e-16 73.0314 1.72006 73.0314 3.84186L73.0314 16.1358C73.0314 18.2576 71.3114 19.9777 69.1896 19.9777L3.84186 19.9777C1.72006 19.9777-1.46555e-06 18.2576-1.46555e-06 16.1358L-1.46555e-06 3.84186C-1.46555e-06 1.72006 1.72006 -6.82452e-16 3.84186 -6.82452e-16Z" fill="#FFFFFF" fill-rule="nonzero" fill-opacity="1" transform="matrix(0.980961 0.194204 -0.194129 0.981338 897.146 347.077)"/><text fill="#000000" fill-opacity="1" font-family="Arial,Arial_MSFontService,sans-serif" font-style="normal" font-variant="normal" font-weight="400" font-stretch="normal" font-size="16" text-anchor="start" direction="ltr" writing-mode="lr-tb" unicode-bidi="normal" text-decoration="none" transform="matrix(0.753744 0.149221 -0.149164 0.754033 898.311 361)">ATTENDED</text><path d="M45.3333 0 205.001 0" stroke="#999999" stroke-width="3.84181" stroke-linecap="butt" stroke-linejoin="miter" stroke-miterlimit="4" stroke-opacity="1" fill="none" fill-rule="nonzero" transform="matrix(6.12323e-17 -1.00038 1 6.12558e-17 1126.16 402.601)"/><path d="M-19.1032 0-21.2257 7.07523 0 0-21.2257-7.07523Z" fill="#999999" fill-rule="nonzero" fill-opacity="1" transform="matrix(6.12323e-17 -1.00038 1 6.12558e-17 1126.16 178.41)"/><path d="M84.4414 0C86.5632 -6.82442e-16 88.2832 1.72004 88.2832 3.84181L88.2832 16.1356C88.2832 18.2574 86.5632 19.9774 84.4414 19.9774L3.84181 19.9774C1.72004 19.9774 2.1983e-06 18.2574 2.1983e-06 16.1356L2.1983e-06 3.84181C2.1983e-06 1.72004 1.72004 -6.82442e-16 3.84181 -6.82442e-16Z" fill="#FFFFFF" fill-rule="nonzero" fill-opacity="1" transform="matrix(6.12323e-17 1.00038 -1 6.12558e-17 1136.15 233.226)"/><text fill="#808080" fill-opacity="1" font-family="Arial,Arial_MSFontService,sans-serif" font-style="normal" font-variant="normal" font-weight="400" font-stretch="normal" font-size="16" text-anchor="start" direction="ltr" writing-mode="lr-tb" unicode-bidi="normal" text-decoration="none" transform="matrix(4.70485e-17 0.768657 -0.768362 4.70666e-17 1122.73 237)">WORKED_ON</text><path d="M45.3391 0 205.027 0" stroke="#999999" stroke-width="3.84229" stroke-linecap="butt" stroke-linejoin="miter" stroke-miterlimit="4" stroke-opacity="1" fill="none" fill-rule="nonzero" transform="matrix(-0.574077 0.818961 -0.818646 -0.574298 1126.16 402.601)"/><path d="M-19.1056 0-21.2284 7.07612 0 0-21.2284-7.07612Z" fill="#999999" fill-rule="nonzero" fill-opacity="1" transform="matrix(-0.574077 0.818961 -0.818646 -0.574298 997.487 586.156)"/><path d="M84.4521 0C86.5741 -6.82528e-16 88.2944 1.72025 88.2944 3.84229L88.2944 16.1376C88.2944 18.2597 86.5741 19.9799 84.4521 19.9799L3.8423 19.9799C1.72026 19.9799 2.19858e-06 18.2597 2.19858e-06 16.1376L2.19858e-06 3.84229C2.19858e-06 1.72025 1.72026 -6.82528e-16 3.8423 -6.82528e-16Z" fill="#FFFFFF" fill-rule="nonzero" fill-opacity="1" transform="matrix(0.574077 -0.818961 0.818646 0.574298 1020.77 535.539)"/><text fill="#808080" fill-opacity="1" font-family="Arial,Arial_MSFontService,sans-serif" font-style="normal" font-variant="normal" font-weight="400" font-stretch="normal" font-size="16" text-anchor="start" direction="ltr" writing-mode="lr-tb" unicode-bidi="normal" text-decoration="none" transform="matrix(0.441155 -0.629338 0.629096 0.441324 1033.96 540)">WORKED_ON</text><path d="M45.3355 0 505.715 0" stroke="#999999" stroke-width="3.84199" stroke-linecap="butt" stroke-linejoin="miter" stroke-miterlimit="4" stroke-opacity="1" fill="none" fill-rule="nonzero" transform="matrix(0.347593 0.937956 -0.937596 0.347726 773.277 88.5075)"/><path d="M-19.1041 0-21.2267 7.07556 0 0-21.2267-7.07556Z" fill="#999999" fill-rule="nonzero" fill-opacity="1" transform="matrix(0.347593 0.937956 -0.937596 0.347726 955.701 580.765)"/><path d="M84.4454 0C86.5672 -6.82474e-16 88.2873 1.72012 88.2873 3.84199L88.2873 16.1363C88.2873 18.2582 86.5672 19.9783 84.4454 19.9783L3.84199 19.9783C1.72012 19.9783 2.1984e-06 18.2582 2.1984e-06 16.1363L2.1984e-06 3.84199C2.1984e-06 1.72012 1.72012 -6.82474e-16 3.84199 -6.82474e-16Z" fill="#FFFFFF" fill-rule="nonzero" fill-opacity="1" transform="matrix(0.347593 0.937956 -0.937596 0.347726 863.07 302.06)"/><text fill="#808080" fill-opacity="1" font-family="Arial,Arial_MSFontService,sans-serif" font-style="normal" font-variant="normal" font-weight="400" font-stretch="normal" font-size="16" text-anchor="start" direction="ltr" writing-mode="lr-tb" unicode-bidi="normal" text-decoration="none" transform="matrix(0.267089 0.720723 -0.720447 0.267192 851.828 310)">WORKED_ON</text><path d="M45.3398 0 201.561 0" stroke="#999999" stroke-width="3.84235" stroke-linecap="butt" stroke-linejoin="miter" stroke-miterlimit="4" stroke-opacity="1" fill="none" fill-rule="nonzero" transform="matrix(0.794623 0.607103 -0.60687 0.794928 393.491 438.613)"/><path d="M-19.1059 0-21.2287 7.07623 0 0-21.2287-7.07623Z" fill="#999999" fill-rule="nonzero" fill-opacity="1" transform="matrix(0.794623 0.607103 -0.60687 0.794928 568.838 572.58)"/><path d="M84.4534 0C86.5755 -6.82539e-16 88.2957 1.72028 88.2957 3.84235L88.2957 16.1379C88.2957 18.26 86.5755 19.9802 84.4534 19.9802L3.84236 19.9802C1.72028 19.9802 2.19861e-06 18.26 2.19861e-06 16.1379L2.19861e-06 3.84235C2.19861e-06 1.72028 1.72028 -6.82539e-16 3.84236 -6.82539e-16Z" fill="#FFFFFF" fill-rule="nonzero" fill-opacity="1" transform="matrix(0.794623 0.607103 -0.60687 0.794928 462.569 478.816)"/><text fill="#808080" fill-opacity="1" font-family="Arial,Arial_MSFontService,sans-serif" font-style="normal" font-variant="normal" font-weight="400" font-stretch="normal" font-size="16" text-anchor="start" direction="ltr" writing-mode="lr-tb" unicode-bidi="normal" text-decoration="none" transform="matrix(0.610645 0.466541 -0.466362 0.610879 457.481 492)">WORKED_ON</text><path d="M45.3336 0 291.243 0" stroke="#999999" stroke-width="3.84183" stroke-linecap="butt" stroke-linejoin="miter" stroke-miterlimit="4" stroke-opacity="1" fill="none" fill-rule="nonzero" transform="matrix(0.992124 0.125257 -0.125209 0.992505 773.277 88.5075)"/><path d="M-19.1033 0-21.2258 7.07527 0 0-21.2258-7.07527Z" fill="#999999" fill-rule="nonzero" fill-opacity="1" transform="matrix(0.992124 0.125257 -0.125209 0.992505 1081.18 127.381)"/><path d="M84.4419 0C86.5637 -6.82446e-16 88.2837 1.72005 88.2837 3.84183L88.2837 16.1357C88.2837 18.2575 86.5637 19.9775 84.4419 19.9775L3.84183 19.9775C1.72005 19.9775 2.19831e-06 18.2575 2.19831e-06 16.1357L2.19831e-06 3.84183C2.19831e-06 1.72005 1.72005 -6.82446e-16 3.84183 -6.82446e-16Z" fill="#FFFFFF" fill-rule="nonzero" fill-opacity="1" transform="matrix(0.992124 0.125257 -0.125209 0.992505 897.696 94.1439)"/><text fill="#808080" fill-opacity="1" font-family="Arial,Arial_MSFontService,sans-serif" font-style="normal" font-variant="normal" font-weight="400" font-stretch="normal" font-size="16" text-anchor="start" direction="ltr" writing-mode="lr-tb" unicode-bidi="normal" text-decoration="none" transform="matrix(0.762315 0.0962435 -0.0962066 0.762607 899.829 108)">WORKED_ON</text><path d="M45.3355 0 493.012 0" stroke="#999999" stroke-width="3.84199" stroke-linecap="butt" stroke-linejoin="miter" stroke-miterlimit="4" stroke-opacity="1" fill="none" fill-rule="nonzero" transform="matrix(-0.935132 0.3543 -0.354164 -0.935491 1126.16 402.601)"/><path d="M-19.1041 0-21.2267 7.07557 0 0-21.2267-7.07557Z" fill="#999999" fill-rule="nonzero" fill-opacity="1" transform="matrix(-0.935132 0.3543 -0.354164 -0.935491 647.261 584.043)"/><path d="M84.4455 0C86.5674 -6.82475e-16 88.2875 1.72012 88.2875 3.84199L88.2875 16.1364C88.2875 18.2582 86.5674 19.9784 84.4455 19.9784L3.842 19.9784C1.72012 19.9784 2.19841e-06 18.2582 2.19841e-06 16.1364L2.19841e-06 3.84199C2.19841e-06 1.72012 1.72012 -6.82475e-16 3.842 -6.82475e-16Z" fill="#FFFFFF" fill-rule="nonzero" fill-opacity="1" transform="matrix(0.935132 -0.3543 0.354164 0.935491 829.625 504.264)"/><text fill="#808080" fill-opacity="1" font-family="Arial,Arial_MSFontService,sans-serif" font-style="normal" font-variant="normal" font-weight="400" font-stretch="normal" font-size="16" text-anchor="start" direction="ltr" writing-mode="lr-tb" unicode-bidi="normal" text-decoration="none" transform="matrix(0.718554 -0.272244 0.272139 0.71883 837.968 515)">WORKED_ON</text><path d="M346.289-360.296C346.289-338.23 328.401-320.341 306.334-320.341 284.268-320.341 266.379-338.23 266.379-360.296 266.379-382.363 284.268-400.251 306.334-400.251 328.401-400.251 346.289-382.363 346.289-360.296Z" stroke="#000000" stroke-width="3.07345" stroke-linecap="butt" stroke-linejoin="miter" stroke-miterlimit="4" stroke-opacity="1" fill="#FCDC00" fill-rule="nonzero" fill-opacity="1" transform="matrix(1 0 0 1.00038 466.943 448.942)"/><text fill="#000000" fill-opacity="1" font-family="Arial,Arial_MSFontService,sans-serif" font-style="normal" font-variant="normal" font-weight="400" font-stretch="normal" font-size="50" text-anchor="start" direction="ltr" writing-mode="lr-tb" unicode-bidi="normal" text-decoration="none" transform="matrix(0.702331 0 0 0.702601 745.971 98)">Jim</text><path d="M290.171-127.263C290.171-105.197 272.283-87.3082 250.216-87.3082 228.15-87.3082 210.261-105.197 210.261-127.263 210.261-149.329 228.15-167.218 250.216-167.218 272.283-167.218 290.171-149.329 290.171-127.263Z" stroke="#000000" stroke-width="3.07345" stroke-linecap="butt" stroke-linejoin="miter" stroke-miterlimit="4" stroke-opacity="1" fill="#73D8FF" fill-rule="nonzero" fill-opacity="1" transform="matrix(1 0 0 1.00038 466.943 448.942)"/><text fill="#000000" fill-opacity="1" font-family="Arial,Arial_MSFontService,sans-serif" font-style="normal" font-variant="normal" font-weight="400" font-stretch="normal" font-size="50" text-anchor="start" direction="ltr" writing-mode="lr-tb" unicode-bidi="normal" text-decoration="none" transform="matrix(0.321151 0 0 0.321275 690.38 316)">Internal</text><text fill="#000000" fill-opacity="1" font-family="Arial,Arial_MSFontService,sans-serif" font-style="normal" font-variant="normal" font-weight="400" font-stretch="normal" font-size="50" text-anchor="start" direction="ltr" writing-mode="lr-tb" unicode-bidi="normal" text-decoration="none" transform="matrix(0.321151 0 0 0.321275 688.596 336)">Meeting</text><path d="M-33.4969-10.3255C-33.4969 11.741-51.3853 29.6293-73.4517 29.6293-95.5181 29.6293-113.406 11.741-113.406-10.3255-113.406-32.3919-95.5181-50.2803-73.4517-50.2803-51.3853-50.2803-33.4969-32.3919-33.4969-10.3255Z" stroke="#000000" stroke-width="3.07345" stroke-linecap="butt" stroke-linejoin="miter" stroke-miterlimit="4" stroke-opacity="1" fill="#FCDC00" fill-rule="nonzero" fill-opacity="1" transform="matrix(1 0 0 1.00038 466.943 448.942)"/><text fill="#000000" fill-opacity="1" font-family="Arial,Arial_MSFontService,sans-serif" font-style="normal" font-variant="normal" font-weight="400" font-stretch="normal" font-size="50" text-anchor="start" direction="ltr" writing-mode="lr-tb" unicode-bidi="normal" text-decoration="none" transform="matrix(0.579272 0 0 0.579495 363.715 447)">Pam</text><path d="M699.168-46.3238C699.168-24.2573 681.28-6.36895 659.214-6.36895 637.147-6.36895 619.259-24.2573 619.259-46.3238 619.259-68.3902 637.147-86.2786 659.214-86.2786 681.28-86.2786 699.168-68.3902 699.168-46.3238Z" stroke="#000000" stroke-width="3.07345" stroke-linecap="butt" stroke-linejoin="miter" stroke-miterlimit="4" stroke-opacity="1" fill="#FCDC00" fill-rule="nonzero" fill-opacity="1" transform="matrix(1 0 0 1.00038 466.943 448.942)"/><text fill="#000000" fill-opacity="1" font-family="Arial,Arial_MSFontService,sans-serif" font-style="normal" font-variant="normal" font-weight="400" font-stretch="normal" font-size="50" text-anchor="start" direction="ltr" writing-mode="lr-tb" unicode-bidi="normal" text-decoration="none" transform="matrix(0.420198 0 0 0.420359 1094.05 408)">Dwight</text><path d="M699.168-315.761C699.168-293.695 681.28-275.806 659.214-275.806 637.147-275.806 619.259-293.695 619.259-315.761 619.259-337.828 637.147-355.716 659.214-355.716 681.28-355.716 699.168-337.828 699.168-315.761Z" stroke="#F44E3B" stroke-width="3.07345" stroke-linecap="butt" stroke-linejoin="miter" stroke-miterlimit="4" stroke-opacity="1" fill="#F44E3B" fill-rule="nonzero" fill-opacity="1" transform="matrix(1 0 0 1.00038 466.943 448.942)"/><text fill="#000000" fill-opacity="1" font-family="Arial,Arial_MSFontService,sans-serif" font-style="normal" font-variant="normal" font-weight="400" font-stretch="normal" font-size="50" text-anchor="start" direction="ltr" writing-mode="lr-tb" unicode-bidi="normal" text-decoration="none" transform="matrix(0.471222 0 0 0.471403 1094.72 140)">Sabre</text><path d="M544.47 174.278C544.47 196.345 526.582 214.233 504.515 214.233 482.449 214.233 464.561 196.345 464.561 174.278 464.561 152.212 482.449 134.323 504.515 134.323 526.582 134.323 544.47 152.212 544.47 174.278Z" stroke="#A4DD00" stroke-width="3.07345" stroke-linecap="butt" stroke-linejoin="miter" stroke-miterlimit="4" stroke-opacity="1" fill="#A4DD00" fill-rule="nonzero" fill-opacity="1" transform="matrix(1 0 0 1.00038 466.943 448.942)"/><text fill="#000000" fill-opacity="1" font-family="Arial,Arial_MSFontService,sans-serif" font-style="normal" font-variant="normal" font-weight="400" font-stretch="normal" font-size="50" text-anchor="start" direction="ltr" writing-mode="lr-tb" unicode-bidi="normal" text-decoration="none" transform="matrix(0.33916 0 0 0.33929 943.649 618)">Dunder</text><text fill="#000000" fill-opacity="1" font-family="Arial,Arial_MSFontService,sans-serif" font-style="normal" font-variant="normal" font-weight="400" font-stretch="normal" font-size="50" text-anchor="start" direction="ltr" writing-mode="lr-tb" unicode-bidi="normal" text-decoration="none" transform="matrix(0.33916 0 0 0.33929 949.47 638)">Mifflin</text><path d="M177.877 151.105C177.877 173.172 159.989 191.06 137.922 191.06 115.856 191.06 97.9676 173.172 97.9676 151.105 97.9676 129.039 115.856 111.15 137.922 111.15 159.989 111.15 177.877 129.039 177.877 151.105Z" stroke="#FE9200" stroke-width="3.07345" stroke-linecap="butt" stroke-linejoin="miter" stroke-miterlimit="4" stroke-opacity="1" fill="#FB9E00" fill-rule="nonzero" fill-opacity="1" transform="matrix(1 0 0 1.00038 466.943 448.942)"/><text fill="#000000" fill-opacity="1" font-family="Arial,Arial_MSFontService,sans-serif" font-style="normal" font-variant="normal" font-weight="400" font-stretch="normal" font-size="50" text-anchor="start" direction="ltr" writing-mode="lr-tb" unicode-bidi="normal" text-decoration="none" transform="matrix(0.441208 0 0 0.441377 572.997 606)">MSPC</text></g></g></g></g></g></svg>