<svg width="640" height="427" xmlns="http://www.w3.org/2000/svg" xmlns:xlink="http://www.w3.org/1999/xlink" xml:space="preserve" overflow="hidden"><g transform="translate(-320 -146)"><g><g><g><g><path d="M30.3982 0 133.589 0" stroke="#000000" stroke-width="2.57612" stroke-linecap="butt" stroke-linejoin="miter" stroke-miterlimit="4" stroke-opacity="1" fill="none" fill-rule="nonzero" transform="matrix(-0.328304 0.944572 -0.946432 -0.327659 715.931 174.816)"/><path d="M-12.8096 0-14.2329 4.74428 0 0-14.2329-4.74428Z" fill="#000000" fill-rule="nonzero" fill-opacity="1" transform="matrix(-0.328304 0.944572 -0.946432 -0.327659 667.868 313.1)"/><path d="M46.3943 0C47.8171 -4.57611e-16 48.9704 1.15337 48.9704 2.57612L48.9704 10.8197C48.9704 12.2425 47.8171 13.3958 46.3943 13.3958L2.57612 13.3958C1.15337 13.3958-9.82712e-07 12.2425-9.82712e-07 10.8197L-9.82712e-07 2.57612C-9.82712e-07 1.15337 1.15337 -4.57611e-16 2.57612 -4.57611e-16Z" fill="#FFFFFF" fill-rule="nonzero" fill-opacity="1" transform="matrix(0.328304 -0.944572 0.946432 0.327659 674.634 273.198)"/><text fill="#000000" fill-opacity="1" font-family="Arial,Arial_MSFontService,sans-serif" font-style="normal" font-variant="normal" font-weight="400" font-stretch="normal" font-size="16" text-anchor="start" direction="ltr" writing-mode="lr-tb" unicode-bidi="normal" text-decoration="none" transform="matrix(0.16915 -0.486666 0.487624 0.168818 683.993 274)">ATTENDED</text><path d="M30.3987 0 185.5 0" stroke="#000000" stroke-width="2.57616" stroke-linecap="butt" stroke-linejoin="miter" stroke-miterlimit="4" stroke-opacity="1" fill="none" fill-rule="nonzero" transform="matrix(0.942139 -0.339714 0.340383 0.940288 439.795 422.156)"/><path d="M-12.8098 0-14.2331 4.74436 0 0-14.2331-4.74436Z" fill="#000000" fill-rule="nonzero" fill-opacity="1" transform="matrix(0.942139 -0.339714 0.340383 0.940288 626.63 354.787)"/><path d="M46.395 0C47.8178 -4.57618e-16 48.9712 1.15339 48.9712 2.57616L48.9712 10.8199C48.9712 12.2426 47.8178 13.396 46.395 13.396L2.57616 13.396C1.15338 13.396-9.82726e-07 12.2426-9.82726e-07 10.8199L-9.82726e-07 2.57616C-9.82726e-07 1.15339 1.15338 -4.57618e-16 2.57616 -4.57618e-16Z" fill="#FFFFFF" fill-rule="nonzero" fill-opacity="1" transform="matrix(0.942139 -0.339714 0.340383 0.940288 516.149 387.504)"/><text fill="#000000" fill-opacity="1" font-family="Arial,Arial_MSFontService,sans-serif" font-style="normal" font-variant="normal" font-weight="400" font-stretch="normal" font-size="16" text-anchor="start" direction="ltr" writing-mode="lr-tb" unicode-bidi="normal" text-decoration="none" transform="matrix(0.48542 -0.175031 0.175376 0.484466 521.638 395)">ATTENDED</text><path d="M30.3935 0 232.888 0" stroke="#000000" stroke-width="2.57572" stroke-linecap="butt" stroke-linejoin="miter" stroke-miterlimit="4" stroke-opacity="1" fill="none" fill-rule="nonzero" transform="matrix(-0.987722 -0.167703 0.168033 -0.985782 931.946 390.406)"/><path d="M-12.8076 0-14.2306 4.74354 0 0-14.2306-4.74354Z" fill="#000000" fill-rule="nonzero" fill-opacity="1" transform="matrix(-0.987722 -0.167703 0.168033 -0.985782 689.267 349.203)"/><path d="M46.3871 0C47.8096 -4.57539e-16 48.9628 1.15319 48.9628 2.57572L48.9628 10.818C48.9628 12.2405 47.8096 13.3937 46.3871 13.3937L2.57572 13.3937C1.15319 13.3937-9.82558e-07 12.2405-9.82558e-07 10.818L-9.82558e-07 2.57572C-9.82558e-07 1.15319 1.15319 -4.57539e-16 2.57572 -4.57539e-16Z" fill="#FFFFFF" fill-rule="nonzero" fill-opacity="1" transform="matrix(0.987722 0.167703 -0.168033 0.985782 778.866 357.623)"/><text fill="#000000" fill-opacity="1" font-family="Arial,Arial_MSFontService,sans-serif" font-style="normal" font-variant="normal" font-weight="400" font-stretch="normal" font-size="16" text-anchor="start" direction="ltr" writing-mode="lr-tb" unicode-bidi="normal" text-decoration="none" transform="matrix(0.508819 0.0863909 -0.086561 0.507819 779.899 367)">ATTENDED</text><path d="M30.3926 0 173.976 0" stroke="#999999" stroke-width="2.57565" stroke-linecap="butt" stroke-linejoin="miter" stroke-miterlimit="4" stroke-opacity="1" fill="none" fill-rule="nonzero" transform="matrix(0.994653 0.120386 -0.120623 0.992699 715.931 174.816)"/><path d="M-12.8073 0-14.2302 4.74342 0 0-14.2302-4.74342Z" fill="#999999" fill-rule="nonzero" fill-opacity="1" transform="matrix(0.994653 0.120386 -0.120623 0.992699 901.715 197.302)"/><path d="M56.6117 0C58.0342 -4.57527e-16 59.1874 1.15316 59.1874 2.57565L59.1874 10.8177C59.1874 12.2402 58.0342 13.3934 56.6117 13.3934L2.57565 13.3934C1.15316 13.3934 1.4738e-06 12.2402 1.4738e-06 10.8177L1.4738e-06 2.57565C1.4738e-06 1.15316 1.15316 -4.57527e-16 2.57565 -4.57527e-16Z" fill="#FFFFFF" fill-rule="nonzero" fill-opacity="1" transform="matrix(0.994653 0.120386 -0.120623 0.992699 788.941 176.907)"/><text fill="#999999" fill-opacity="1" font-family="Arial,Arial_MSFontService,sans-serif" font-style="normal" font-variant="normal" font-weight="400" font-stretch="normal" font-size="16" text-anchor="start" direction="ltr" writing-mode="lr-tb" unicode-bidi="normal" text-decoration="none" transform="matrix(0.512375 0.0620142 -0.0621363 0.511368 790.418 186)">WORKED_ON</text><path d="M30.3918 0 146.247 0" stroke="#999999" stroke-width="2.57557" stroke-linecap="butt" stroke-linejoin="miter" stroke-miterlimit="4" stroke-opacity="1" fill="none" fill-rule="nonzero" transform="matrix(6.13529e-17 -1 1.00197 6.12323e-17 931.946 390.406)"/><path d="M-12.8069 0-14.2298 4.74328 0 0-14.2298-4.74328Z" fill="#999999" fill-rule="nonzero" fill-opacity="1" transform="matrix(6.13529e-17 -1 1.00197 6.12323e-17 931.946 231.353)"/><path d="M56.6101 0C58.0325 -4.57514e-16 59.1857 1.15312 59.1857 2.57557L59.1857 10.8174C59.1857 12.2399 58.0325 13.393 56.6101 13.393L2.57558 13.393C1.15313 13.393 1.47376e-06 12.2399 1.47376e-06 10.8174L1.47376e-06 2.57557C1.47376e-06 1.15312 1.15313 -4.57514e-16 2.57558 -4.57514e-16Z" fill="#FFFFFF" fill-rule="nonzero" fill-opacity="1" transform="matrix(6.13529e-17 1 -1.00197 6.12323e-17 938.655 272.494)"/><text fill="#999999" fill-opacity="1" font-family="Arial,Arial_MSFontService,sans-serif" font-style="normal" font-variant="normal" font-weight="400" font-stretch="normal" font-size="16" text-anchor="start" direction="ltr" writing-mode="lr-tb" unicode-bidi="normal" text-decoration="none" transform="matrix(3.16038e-17 0.515115 -0.516129 3.15417e-17 929.645 275)">WORKED_ON</text><path d="M30.3963 0 342.031 0" stroke="#999999" stroke-width="2.57596" stroke-linecap="butt" stroke-linejoin="miter" stroke-miterlimit="4" stroke-opacity="1" fill="none" fill-rule="nonzero" transform="matrix(0.276183 0.961105 -0.962997 0.275641 715.931 174.816)"/><path d="M-12.8088 0-14.232 4.74399 0 0-14.232-4.74399Z" fill="#999999" fill-rule="nonzero" fill-opacity="1" transform="matrix(0.276183 0.961105 -0.962997 0.275641 813.932 515.854)"/><path d="M56.6186 0C58.0412 -4.57582e-16 59.1945 1.1533 59.1945 2.57596L59.1945 10.819C59.1945 12.2417 58.0412 13.395 56.6186 13.395L2.57596 13.395C1.1533 13.395 1.47398e-06 12.2417 1.47398e-06 10.819L1.47398e-06 2.57596C1.47398e-06 1.1533 1.1533 -4.57582e-16 2.57596 -4.57582e-16Z" fill="#FFFFFF" fill-rule="nonzero" fill-opacity="1" transform="matrix(0.276183 0.961105 -0.962997 0.275641 765.635 323.495)"/><text fill="#999999" fill-opacity="1" font-family="Arial,Arial_MSFontService,sans-serif" font-style="normal" font-variant="normal" font-weight="400" font-stretch="normal" font-size="16" text-anchor="start" direction="ltr" writing-mode="lr-tb" unicode-bidi="normal" text-decoration="none" transform="matrix(0.142287 0.495154 -0.496129 0.142008 757.686 328)">WORKED_ON</text><path d="M30.4117 0 146.343 0" stroke="#999999" stroke-width="2.57727" stroke-linecap="butt" stroke-linejoin="miter" stroke-miterlimit="4" stroke-opacity="1" fill="none" fill-rule="nonzero" transform="matrix(-0.57825 0.815859 -0.817466 -0.577114 931.946 390.406)"/><path d="M-12.8153 0-14.2392 4.7464 0 0-14.2392-4.7464Z" fill="#999999" fill-rule="nonzero" fill-opacity="1" transform="matrix(-0.57825 0.815859 -0.817466 -0.577114 839.913 520.257)"/><path d="M56.6473 0C58.0706 -4.57814e-16 59.2245 1.15388 59.2245 2.57727L59.2245 10.8245C59.2245 12.2479 58.0706 13.4018 56.6473 13.4018L2.57727 13.4018C1.15388 13.4018 1.47472e-06 12.2479 1.47472e-06 10.8245L1.47472e-06 2.57727C1.47472e-06 1.15388 1.15388 -4.57814e-16 2.57727 -4.57814e-16Z" fill="#FFFFFF" fill-rule="nonzero" fill-opacity="1" transform="matrix(0.57825 -0.815859 0.817466 0.577114 858.24 482.802)"/><text fill="#999999" fill-opacity="1" font-family="Arial,Arial_MSFontService,sans-serif" font-style="normal" font-variant="normal" font-weight="400" font-stretch="normal" font-size="16" text-anchor="start" direction="ltr" writing-mode="lr-tb" unicode-bidi="normal" text-decoration="none" transform="matrix(0.298061 -0.420537 0.421365 0.297475 867.086 486)">WORKED_ON</text><path d="M30.4001 0 325.151 0" stroke="#999999" stroke-width="2.57628" stroke-linecap="butt" stroke-linejoin="miter" stroke-miterlimit="4" stroke-opacity="1" fill="none" fill-rule="nonzero" transform="matrix(-0.929402 0.372903 -0.373637 -0.927576 931.946 390.406)"/><path d="M-12.8104 0-14.2337 4.74458 0 0-14.2337-4.74458Z" fill="#999999" fill-rule="nonzero" fill-opacity="1" transform="matrix(-0.929402 0.372903 -0.373637 -0.927576 617.844 516.433)"/><path d="M56.6255 0C58.0484 -4.57639e-16 59.2018 1.15344 59.2018 2.57628L59.2018 10.8204C59.2018 12.2432 58.0484 13.3966 56.6255 13.3966L2.57628 13.3966C1.15344 13.3966 1.47416e-06 12.2432 1.47416e-06 10.8204L1.47416e-06 2.57628C1.47416e-06 1.15344 1.15344 -4.57639e-16 2.57628 -4.57639e-16Z" fill="#FFFFFF" fill-rule="nonzero" fill-opacity="1" transform="matrix(0.929402 -0.372903 0.373637 0.927576 736.707 461.525)"/><text fill="#999999" fill-opacity="1" font-family="Arial,Arial_MSFontService,sans-serif" font-style="normal" font-variant="normal" font-weight="400" font-stretch="normal" font-size="16" text-anchor="start" direction="ltr" writing-mode="lr-tb" unicode-bidi="normal" text-decoration="none" transform="matrix(0.478879 -0.19214 0.192519 0.477939 742.462 469)">WORKED_ON</text><path d="M30.4117 0 139.935 0" stroke="#999999" stroke-width="2.57726" stroke-linecap="butt" stroke-linejoin="miter" stroke-miterlimit="4" stroke-opacity="1" fill="none" fill-rule="nonzero" transform="matrix(0.817824 0.576614 -0.577749 0.816217 439.795 422.156)"/><path d="M-12.8153 0-14.2392 4.74639 0 0-14.2392-4.74639Z" fill="#999999" fill-rule="nonzero" fill-opacity="1" transform="matrix(0.817824 0.576614 -0.577749 0.816217 564.718 510.234)"/><path d="M56.6471 0C58.0705 -4.57813e-16 59.2244 1.15388 59.2244 2.57726L59.2244 10.8245C59.2244 12.2479 58.0705 13.4018 56.6471 13.4018L2.57726 13.4018C1.15388 13.4018 1.47472e-06 12.2479 1.47472e-06 10.8245L1.47472e-06 2.57726C1.47472e-06 1.15388 1.15388 -4.57813e-16 2.57726 -4.57813e-16Z" fill="#FFFFFF" fill-rule="nonzero" fill-opacity="1" transform="matrix(0.817824 0.576614 -0.577749 0.816217 489.106 448.724)"/><text fill="#999999" fill-opacity="1" font-family="Arial,Arial_MSFontService,sans-serif" font-style="normal" font-variant="normal" font-weight="400" font-stretch="normal" font-size="16" text-anchor="start" direction="ltr" writing-mode="lr-tb" unicode-bidi="normal" text-decoration="none" transform="matrix(0.421549 0.297217 -0.297802 0.420721 486.015 458)">WORKED_ON</text><path d="M30.3937 0 171.921 0" stroke="#000000" stroke-width="2.57574" stroke-linecap="butt" stroke-linejoin="miter" stroke-miterlimit="4" stroke-opacity="1" fill="none" fill-rule="nonzero" transform="matrix(-0.985443 0.180519 -0.180874 -0.983507 715.931 174.816)"/><path d="M-12.8077 0-14.2307 4.74358 0 0-14.2307-4.74358Z" fill="#000000" fill-rule="nonzero" fill-opacity="1" transform="matrix(-0.985443 0.180519 -0.180874 -0.983507 533.891 208.163)"/><path d="M46.3874 0C47.81 -4.57543e-16 48.9632 1.1532 48.9632 2.57574L48.9632 10.8181C48.9632 12.2406 47.81 13.3938 46.3874 13.3938L2.57574 13.3938C1.1532 13.3938-9.82566e-07 12.2406-9.82566e-07 10.8181L-9.82566e-07 2.57574C-9.82566e-07 1.1532 1.1532 -4.57543e-16 2.57574 -4.57543e-16Z" fill="#FFFFFF" fill-rule="nonzero" fill-opacity="1" transform="matrix(0.985443 -0.180519 0.180874 0.983507 590.91 190.91)"/><text fill="#000000" fill-opacity="1" font-family="Arial,Arial_MSFontService,sans-serif" font-style="normal" font-variant="normal" font-weight="400" font-stretch="normal" font-size="16" text-anchor="start" direction="ltr" writing-mode="lr-tb" unicode-bidi="normal" text-decoration="none" transform="matrix(0.507649 -0.0929937 0.0931768 0.506651 595.074 199)">ATTENDED</text><path d="M30.3967 0 171.938 0" stroke="#000000" stroke-width="2.57599" stroke-linecap="butt" stroke-linejoin="miter" stroke-miterlimit="4" stroke-opacity="1" fill="none" fill-rule="nonzero" transform="matrix(0.285971 -0.958238 0.960125 0.285409 439.795 422.156)"/><path d="M-12.8089 0-14.2321 4.74404 0 0-14.2321-4.74404Z" fill="#000000" fill-rule="nonzero" fill-opacity="1" transform="matrix(0.285971 -0.958238 0.960125 0.285409 492.627 245.124)"/><path d="M46.3919 0C47.8146 -4.57587e-16 48.9679 1.15331 48.9679 2.57599L48.9679 10.8191C48.9679 12.2418 47.8146 13.3951 46.3919 13.3951L2.57599 13.3951C1.15331 13.3951-9.82661e-07 12.2418-9.82661e-07 10.8191L-9.82661e-07 2.57599C-9.82661e-07 1.15331 1.15331 -4.57587e-16 2.57599 -4.57587e-16Z" fill="#FFFFFF" fill-rule="nonzero" fill-opacity="1" transform="matrix(0.285971 -0.958238 0.960125 0.285409 455.294 346.763)"/><text fill="#000000" fill-opacity="1" font-family="Arial,Arial_MSFontService,sans-serif" font-style="normal" font-variant="normal" font-weight="400" font-stretch="normal" font-size="16" text-anchor="start" direction="ltr" writing-mode="lr-tb" unicode-bidi="normal" text-decoration="none" transform="matrix(0.147332 -0.493682 0.494654 0.147042 464.666 347)">ATTENDED</text><path d="M30.4004 0 418.882 0" stroke="#000000" stroke-width="2.57631" stroke-linecap="butt" stroke-linejoin="miter" stroke-miterlimit="4" stroke-opacity="1" fill="none" fill-rule="nonzero" transform="matrix(-0.926495 -0.380013 0.380761 -0.924674 931.946 390.406)"/><path d="M-12.8105 0-14.2339 4.74463 0 0-14.2339-4.74463Z" fill="#000000" fill-rule="nonzero" fill-opacity="1" transform="matrix(-0.926495 -0.380013 0.380761 -0.924674 531.985 226.358)"/><path d="M46.3977 0C47.8205 -4.57644e-16 48.974 1.15345 48.974 2.57631L48.974 10.8205C48.974 12.2433 47.8205 13.3968 46.3977 13.3968L2.5763 13.3968C1.15345 13.3968-9.82783e-07 12.2433-9.82783e-07 10.8205L-9.82783e-07 2.57631C-9.82783e-07 1.15345 1.15345 -4.57644e-16 2.5763 -4.57644e-16Z" fill="#FFFFFF" fill-rule="nonzero" fill-opacity="1" transform="matrix(0.926495 0.380013 -0.380761 0.924674 703.68 289.541)"/><text fill="#000000" fill-opacity="1" font-family="Arial,Arial_MSFontService,sans-serif" font-style="normal" font-variant="normal" font-weight="400" font-stretch="normal" font-size="16" text-anchor="start" direction="ltr" writing-mode="lr-tb" unicode-bidi="normal" text-decoration="none" transform="matrix(0.477387 0.195806 -0.196191 0.476449 702.642 299)">ATTENDED</text><path d="M30.3937 0 111.052 0" stroke="#000000" stroke-width="2.57574" stroke-linecap="butt" stroke-linejoin="miter" stroke-miterlimit="4" stroke-opacity="1" fill="none" fill-rule="nonzero" transform="matrix(0.985443 -0.180519 0.180874 0.983507 347.871 242.24)"/><path d="M-12.8077 0-14.2307 4.74358 0 0-14.2307-4.74358Z" fill="#000000" fill-rule="nonzero" fill-opacity="1" transform="matrix(0.985443 -0.180519 0.180874 0.983507 469.927 219.881)"/><path d="M46.3874 0C47.81 -4.57543e-16 48.9632 1.1532 48.9632 2.57574L48.9632 10.8181C48.9632 12.2406 47.81 13.3938 46.3874 13.3938L2.57574 13.3938C1.1532 13.3938-9.82566e-07 12.2406-9.82566e-07 10.8181L-9.82566e-07 2.57574C-9.82566e-07 1.1532 1.1532 -4.57543e-16 2.57574 -4.57543e-16Z" fill="#FFFFFF" fill-rule="nonzero" fill-opacity="1" transform="matrix(0.985443 -0.180519 0.180874 0.983507 392.228 227.306)"/><text fill="#000000" fill-opacity="1" font-family="Arial,Arial_MSFontService,sans-serif" font-style="normal" font-variant="normal" font-weight="400" font-stretch="normal" font-size="16" text-anchor="start" direction="ltr" writing-mode="lr-tb" unicode-bidi="normal" text-decoration="none" transform="matrix(0.507649 -0.0929937 0.0931768 0.506651 396.393 236)">ATTENDED</text><path d="M30.4184 0 340.215 0" stroke="#F44E3B" stroke-width="4.12453" stroke-linecap="butt" stroke-linejoin="miter" stroke-miterlimit="4" stroke-opacity="1" fill="none" fill-rule="nonzero" transform="matrix(0.745039 -0.667342 0.668656 0.743575 439.795 422.156)"/><path d="M41.5575 0C42.9812 -4.57915e-16 44.1353 1.15414 44.1353 2.57783L44.1353 12.8892C44.1353 14.3129 42.9812 15.467 41.5575 15.467L2.57783 15.467C1.15413 15.467-4.91683e-07 14.3129-4.91683e-07 12.8892L-4.91683e-07 2.57783C-4.91683e-07 1.15414 1.15413 -4.57915e-16 2.57783 -4.57915e-16Z" fill="#FFFFFF" fill-rule="nonzero" fill-opacity="1" transform="matrix(0.745039 -0.667342 0.668656 0.743575 556.251 307.462)"/><text fill="#F44E3B" fill-opacity="1" font-family="Arial,Arial_MSFontService,sans-serif" font-style="normal" font-variant="normal" font-weight="400" font-stretch="normal" font-size="20" text-anchor="start" direction="ltr" writing-mode="lr-tb" unicode-bidi="normal" text-decoration="none" transform="matrix(0.384117 -0.344059 0.344737 0.383362 565.263 314)">Sabre: 6</text><path d="M30.2645-3.0884 49.4837-5.04965C50.1793-5.12065 50.8782-5.15621 51.5776-5.15621L152.595-5.15621 253.612-5.15621C254.312-5.15621 255.011-5.12065 255.706-5.04965L274.926-3.0884" stroke="#F44E3B" stroke-width="4.12497" stroke-linecap="butt" stroke-linejoin="miter" stroke-miterlimit="4" stroke-opacity="1" fill="#000000" fill-rule="nonzero" fill-opacity="1" transform="matrix(0.707803 0.706412 -0.707803 0.706412 715.931 174.816)"/><path d="M39.6127 0C41.0366 -4.57964e-16 42.1908 1.15426 42.1908 2.57811L42.1908 12.3749C42.1908 13.7988 41.0366 14.953 39.6127 14.953L2.57811 14.953C1.15426 14.953 1.4752e-06 13.7988 1.4752e-06 12.3749L1.4752e-06 2.57811C1.4752e-06 1.15426 1.15426 -4.57964e-16 2.57811 -4.57964e-16Z" fill="#FFFFFF" fill-rule="nonzero" fill-opacity="1" transform="matrix(0.707803 0.706412 -0.707803 0.706412 817.949 258.785)"/><text fill="#F44E3B" fill-opacity="1" font-family="Arial,Arial_MSFontService,sans-serif" font-style="normal" font-variant="normal" font-weight="400" font-stretch="normal" font-size="19" text-anchor="start" direction="ltr" writing-mode="lr-tb" unicode-bidi="normal" text-decoration="none" transform="matrix(0.364958 0.364241 -0.364958 0.364241 812.55 268)">Sabre: 4</text><path d="M30.2645 3.0884 49.4837 5.04965C50.1793 5.12065 50.8782 5.15621 51.5776 5.15621L152.595 5.15621 253.612 5.15621C254.312 5.15621 255.011 5.12065 255.706 5.04965L274.926 3.0884" stroke="#A4DD00" stroke-width="4.12497" stroke-linecap="butt" stroke-linejoin="miter" stroke-miterlimit="4" stroke-opacity="1" fill="#000000" fill-rule="nonzero" fill-opacity="1" transform="matrix(0.707803 0.706412 -0.707803 0.706412 715.931 174.816)"/><path d="M73.9061 0C75.3299 -4.57964e-16 76.4842 1.15426 76.4842 2.57811L76.4842 12.3749C76.4842 13.7988 75.3299 14.953 73.9061 14.953L2.57811 14.953C1.15426 14.953-2.45867e-07 13.7988-2.45867e-07 12.3749L-2.45867e-07 2.57811C-2.45867e-07 1.15426 1.15426 -4.57964e-16 2.57811 -4.57964e-16Z" fill="#FFFFFF" fill-rule="nonzero" fill-opacity="1" transform="matrix(0.707803 0.706412 -0.707803 0.706412 798.512 253.958)"/><text fill="#808900" fill-opacity="1" font-family="Arial,Arial_MSFontService,sans-serif" font-style="normal" font-variant="normal" font-weight="400" font-stretch="normal" font-size="19" text-anchor="start" direction="ltr" writing-mode="lr-tb" unicode-bidi="normal" text-decoration="none" transform="matrix(0.364958 0.364241 -0.364958 0.364241 793.114 263)">Dunder Mifflin: 5</text><path d="M30.392 0 461.821 0" stroke="#F44E3B" stroke-width="4.12095" stroke-linecap="butt" stroke-linejoin="miter" stroke-miterlimit="4" stroke-opacity="1" fill="none" fill-rule="nonzero" transform="matrix(-0.999874 0.064503 -0.06463 -0.997909 931.946 390.406)"/><path d="M41.5214 0C42.9439 -4.57517e-16 44.097 1.15313 44.097 2.57559L44.097 12.878C44.097 14.3004 42.9439 15.4536 41.5214 15.4536L2.57559 15.4536C1.15313 15.4536-4.91256e-07 14.3004-4.91256e-07 12.878L-4.91256e-07 2.57559C-4.91256e-07 1.15313 1.15313 -4.57517e-16 2.57559 -4.57517e-16Z" fill="#FFFFFF" fill-rule="nonzero" fill-opacity="1" transform="matrix(0.999874 -0.064503 0.06463 0.997909 663.325 399.993)"/><text fill="#F44E3B" fill-opacity="1" font-family="Arial,Arial_MSFontService,sans-serif" font-style="normal" font-variant="normal" font-weight="400" font-stretch="normal" font-size="20" text-anchor="start" direction="ltr" writing-mode="lr-tb" unicode-bidi="normal" text-decoration="none" transform="matrix(0.515054 -0.0332267 0.0332921 0.514042 666.585 410)">Sabre: 9</text><path d="M253.137-254.262C253.137-239.468 241.144-227.476 226.351-227.476 211.557-227.476 199.565-239.468 199.565-254.262 199.565-269.055 211.557-281.048 226.351-281.048 241.144-281.048 253.137-269.055 253.137-254.262Z" stroke="#000000" stroke-width="2.06046" stroke-linecap="butt" stroke-linejoin="miter" stroke-miterlimit="4" stroke-opacity="1" fill="#FCDC00" fill-rule="nonzero" fill-opacity="1" transform="matrix(1.00197 0 0 1 489.134 429.078)"/><text fill="#000000" fill-opacity="1" font-family="Arial,Arial_MSFontService,sans-serif" font-style="normal" font-variant="normal" font-weight="400" font-stretch="normal" font-size="50" text-anchor="start" direction="ltr" writing-mode="lr-tb" unicode-bidi="normal" text-decoration="none" transform="matrix(0.471774 0 0 0.470847 697.589 181)">Jim</text><path d="M195.563-85.318C195.563-69.9555 183.109-57.5018 167.747-57.5018 152.384-57.5018 139.93-69.9555 139.93-85.318 139.93-100.68 152.384-113.134 167.747-113.134 183.109-113.134 195.563-100.68 195.563-85.318Z" stroke="#F44E3B" stroke-width="4.12092" stroke-linecap="butt" stroke-linejoin="miter" stroke-miterlimit="4" stroke-opacity="1" fill="#73D8FF" fill-rule="nonzero" fill-opacity="1" transform="matrix(1.00197 0 0 1 489.134 429.078)"/><text fill="#000000" fill-opacity="1" font-family="Arial,Arial_MSFontService,sans-serif" font-style="normal" font-variant="normal" font-weight="400" font-stretch="normal" font-size="50" text-anchor="start" direction="ltr" writing-mode="lr-tb" unicode-bidi="normal" text-decoration="none" transform="matrix(0.215726 0 0 0.215302 639.223 340)">Internal</text><text fill="#000000" fill-opacity="1" font-family="Arial,Arial_MSFontService,sans-serif" font-style="normal" font-variant="normal" font-weight="400" font-stretch="normal" font-size="50" text-anchor="start" direction="ltr" writing-mode="lr-tb" unicode-bidi="normal" text-decoration="none" transform="matrix(0.215726 0 0 0.215302 638.025 353)">Meeting</text><path d="M0 0 69.8624 0 69.8624 12.3628 0 12.3628Z" fill="#FFFFFF" fill-rule="nonzero" fill-opacity="1" transform="matrix(1.00197 0 0 1 622.211 374.667)"/><text fill="#D33115" fill-opacity="1" font-family="Arial,Arial_MSFontService,sans-serif" font-style="normal" font-variant="normal" font-weight="400" font-stretch="normal" font-size="20" text-anchor="start" direction="ltr" writing-mode="lr-tb" unicode-bidi="normal" text-decoration="none" transform="matrix(0.516129 0 0 0.515115 625.079 384)">project:</text><text fill="#D33115" fill-opacity="1" font-family="Arial,Arial_MSFontService,sans-serif" font-style="normal" font-variant="normal" font-weight="400" font-stretch="normal" font-size="20" text-anchor="start" direction="ltr" writing-mode="lr-tb" unicode-bidi="normal" text-decoration="none" transform="matrix(0.516129 0 0 0.515115 661.798 384)">Sabre</text><path d="M-22.4565-6.92227C-22.4565 7.87122-34.449 19.8637-49.2425 19.8637-64.036 19.8637-76.0285 7.87122-76.0285-6.92227-76.0285-21.7158-64.036-33.7082-49.2425-33.7082-34.449-33.7082-22.4565-21.7158-22.4565-6.92227Z" stroke="#000000" stroke-width="2.06046" stroke-linecap="butt" stroke-linejoin="miter" stroke-miterlimit="4" stroke-opacity="1" fill="#FCDC00" fill-rule="nonzero" fill-opacity="1" transform="matrix(1.00197 0 0 1 489.134 429.078)"/><text fill="#000000" fill-opacity="1" font-family="Arial,Arial_MSFontService,sans-serif" font-style="normal" font-variant="normal" font-weight="400" font-stretch="normal" font-size="50" text-anchor="start" direction="ltr" writing-mode="lr-tb" unicode-bidi="normal" text-decoration="none" transform="matrix(0.389113 0 0 0.388348 419.793 428)">Pam</text><path d="M468.727-38.6715C468.727-23.878 456.735-11.8855 441.941-11.8855 427.148-11.8855 415.155-23.878 415.155-38.6715 415.155-53.465 427.148-65.4574 441.941-65.4574 456.735-65.4574 468.727-53.465 468.727-38.6715Z" stroke="#000000" stroke-width="2.06046" stroke-linecap="butt" stroke-linejoin="miter" stroke-miterlimit="4" stroke-opacity="1" fill="#FCDC00" fill-rule="nonzero" fill-opacity="1" transform="matrix(1.00197 0 0 1 489.134 429.078)"/><text fill="#000000" fill-opacity="1" font-family="Arial,Arial_MSFontService,sans-serif" font-style="normal" font-variant="normal" font-weight="400" font-stretch="normal" font-size="50" text-anchor="start" direction="ltr" writing-mode="lr-tb" unicode-bidi="normal" text-decoration="none" transform="matrix(0.282258 0 0 0.281703 910.377 394)">Dwight</text><path d="M468.727-228.117C468.727-213.323 456.735-201.331 441.941-201.331 427.148-201.331 415.155-213.323 415.155-228.117 415.155-242.91 427.148-254.903 441.941-254.903 456.735-254.903 468.727-242.91 468.727-228.117Z" stroke="#F44E3B" stroke-width="2.06046" stroke-linecap="butt" stroke-linejoin="miter" stroke-miterlimit="4" stroke-opacity="1" fill="#F44E3B" fill-rule="nonzero" fill-opacity="1" transform="matrix(1.00197 0 0 1 489.134 429.078)"/><text fill="#000000" fill-opacity="1" font-family="Arial,Arial_MSFontService,sans-serif" font-style="normal" font-variant="normal" font-weight="400" font-stretch="normal" font-size="50" text-anchor="start" direction="ltr" writing-mode="lr-tb" unicode-bidi="normal" text-decoration="none" transform="matrix(0.316533 0 0 0.315911 910.829 205)">Sabre</text><path d="M359.324 115.991C359.324 130.784 347.331 142.777 332.538 142.777 317.744 142.777 305.752 130.784 305.752 115.991 305.752 101.197 317.744 89.205 332.538 89.205 347.331 89.205 359.324 101.197 359.324 115.991Z" stroke="#A4DD00" stroke-width="2.06046" stroke-linecap="butt" stroke-linejoin="miter" stroke-miterlimit="4" stroke-opacity="1" fill="#A4DD00" fill-rule="nonzero" fill-opacity="1" transform="matrix(1.00197 0 0 1 489.134 429.078)"/><text fill="#000000" fill-opacity="1" font-family="Arial,Arial_MSFontService,sans-serif" font-style="normal" font-variant="normal" font-weight="400" font-stretch="normal" font-size="50" text-anchor="start" direction="ltr" writing-mode="lr-tb" unicode-bidi="normal" text-decoration="none" transform="matrix(0.227823 0 0 0.227375 803.646 541)">Dunder</text><text fill="#000000" fill-opacity="1" font-family="Arial,Arial_MSFontService,sans-serif" font-style="normal" font-variant="normal" font-weight="400" font-stretch="normal" font-size="50" text-anchor="start" direction="ltr" writing-mode="lr-tb" unicode-bidi="normal" text-decoration="none" transform="matrix(0.227823 0 0 0.227375 807.557 555)">Mifflin</text><path d="M127.044 98.6919C127.044 113.485 115.051 125.478 100.258 125.478 85.4643 125.478 73.4719 113.485 73.4719 98.6919 73.4719 83.8984 85.4643 71.9059 100.258 71.9059 115.051 71.9059 127.044 83.8984 127.044 98.6919Z" stroke="#FE9200" stroke-width="2.06046" stroke-linecap="butt" stroke-linejoin="miter" stroke-miterlimit="4" stroke-opacity="1" fill="#FE9200" fill-rule="nonzero" fill-opacity="1" transform="matrix(1.00197 0 0 1 489.134 429.078)"/><text fill="#000000" fill-opacity="1" font-family="Arial,Arial_MSFontService,sans-serif" font-style="normal" font-variant="normal" font-weight="400" font-stretch="normal" font-size="50" text-anchor="start" direction="ltr" writing-mode="lr-tb" unicode-bidi="normal" text-decoration="none" transform="matrix(0.296371 0 0 0.295789 568.183 532)">MSPC</text><path d="M40.5659-215.056C40.5659-199.693 28.1121-187.24 12.7497-187.24-2.61281-187.24-15.0665-199.693-15.0665-215.056-15.0665-230.418-2.61281-242.872 12.7497-242.872 28.1121-242.872 40.5659-230.418 40.5659-215.056Z" stroke="#F44E3B" stroke-width="4.12092" stroke-linecap="butt" stroke-linejoin="miter" stroke-miterlimit="4" stroke-opacity="1" fill="#73D8FF" fill-rule="nonzero" fill-opacity="1" transform="matrix(1.00197 0 0 1 489.134 429.078)"/><text fill="#000000" fill-opacity="1" font-family="Arial,Arial_MSFontService,sans-serif" font-style="normal" font-variant="normal" font-weight="400" font-stretch="normal" font-size="50" text-anchor="start" direction="ltr" writing-mode="lr-tb" unicode-bidi="normal" text-decoration="none" transform="matrix(0.211694 0 0 0.211278 482.494 211)">External</text><text fill="#000000" fill-opacity="1" font-family="Arial,Arial_MSFontService,sans-serif" font-style="normal" font-variant="normal" font-weight="400" font-stretch="normal" font-size="50" text-anchor="start" direction="ltr" writing-mode="lr-tb" unicode-bidi="normal" text-decoration="none" transform="matrix(0.211694 0 0 0.211278 483.081 223)">Meeting</text><path d="M0 0 69.8624 0 69.8624 12.3628 0 12.3628Z" fill="#FFFFFF" fill-rule="nonzero" fill-opacity="1" transform="matrix(1.00197 0 0 1 466.909 170.752)"/><text fill="#D33115" fill-opacity="1" font-family="Arial,Arial_MSFontService,sans-serif" font-style="normal" font-variant="normal" font-weight="400" font-stretch="normal" font-size="20" text-anchor="start" direction="ltr" writing-mode="lr-tb" unicode-bidi="normal" text-decoration="none" transform="matrix(0.516129 0 0 0.515115 469.777 180)">project:</text><text fill="#D33115" fill-opacity="1" font-family="Arial,Arial_MSFontService,sans-serif" font-style="normal" font-variant="normal" font-weight="400" font-stretch="normal" font-size="20" text-anchor="start" direction="ltr" writing-mode="lr-tb" unicode-bidi="normal" text-decoration="none" transform="matrix(0.516129 0 0 0.515115 506.496 180)">Sabre</text><path d="M-114.2-186.838C-114.2-172.045-126.192-160.052-140.986-160.052-155.779-160.052-167.772-172.045-167.772-186.838-167.772-201.632-155.779-213.624-140.986-213.624-126.192-213.624-114.2-201.632-114.2-186.838Z" stroke="#F44E3B" stroke-width="2.06046" stroke-linecap="butt" stroke-linejoin="miter" stroke-miterlimit="4" stroke-opacity="1" fill="#FFFFFF" fill-rule="nonzero" fill-opacity="1" transform="matrix(1.00197 0 0 1 489.134 429.078)"/><text fill="#000000" fill-opacity="1" font-family="Arial,Arial_MSFontService,sans-serif" font-style="normal" font-variant="normal" font-weight="400" font-stretch="normal" font-size="50" text-anchor="start" direction="ltr" writing-mode="lr-tb" unicode-bidi="normal" text-decoration="none" transform="matrix(0.159274 0 0 0.158961 325.24 244)">@sabre.com</text></g></g></g></g></g></svg>