<svg width="817" height="435" xmlns="http://www.w3.org/2000/svg" xmlns:xlink="http://www.w3.org/1999/xlink" xml:space="preserve" overflow="hidden"><g transform="translate(-365 -105)"><g><g><g><g><path d="M45.337 0 175.273 0" stroke="#000000" stroke-width="3.84212" stroke-linecap="butt" stroke-linejoin="miter" stroke-miterlimit="4" stroke-opacity="1" fill="none" fill-rule="nonzero" transform="matrix(-0.234103 0.973573 -0.972128 -0.234451 787.277 147.553)"/><path d="M-19.1047 0-21.2274 7.0758 0 0-21.2274-7.0758Z" fill="#000000" fill-rule="nonzero" fill-opacity="1" transform="matrix(-0.234103 0.973573 -0.972128 -0.234451 741.773 336.794)"/><path d="M69.1942 0C71.3161 -6.82498e-16 73.0363 1.72018 73.0363 3.84212L73.0363 16.1369C73.0363 18.2588 71.3161 19.979 69.1942 19.979L3.84212 19.979C1.72017 19.979-1.46565e-06 18.2588-1.46565e-06 16.1369L-1.46565e-06 3.84212C-1.46565e-06 1.72018 1.72017 -6.82498e-16 3.84212 -6.82498e-16Z" fill="#FFFFFF" fill-rule="nonzero" fill-opacity="1" transform="matrix(0.234103 -0.973573 0.972128 0.234451 743.195 288.154)"/><text fill="#000000" fill-opacity="1" font-family="Arial,Arial_MSFontService,sans-serif" font-style="normal" font-variant="normal" font-weight="400" font-stretch="normal" font-size="16" text-anchor="start" direction="ltr" writing-mode="lr-tb" unicode-bidi="normal" text-decoration="none" transform="matrix(0.17989 -0.748117 0.747007 0.180158 757.135 288)">ATTENDED</text><path d="M45.3411 0 279.756 0" stroke="#000000" stroke-width="3.84247" stroke-linecap="butt" stroke-linejoin="miter" stroke-miterlimit="4" stroke-opacity="1" fill="none" fill-rule="nonzero" transform="matrix(0.94034 -0.340238 0.339733 0.941737 407.491 498.044)"/><path d="M-19.1064 0-21.2293 7.07644 0 0-21.2293-7.07644Z" fill="#000000" fill-rule="nonzero" fill-opacity="1" transform="matrix(0.94034 -0.340238 0.339733 0.941737 688.524 396.36)"/><path d="M69.2005 0C71.3226 -6.82559e-16 73.0429 1.72033 73.0429 3.84247L73.0429 16.1384C73.0429 18.2605 71.3226 19.9808 69.2005 19.9808L3.84247 19.9808C1.72033 19.9808-1.46579e-06 18.2605-1.46579e-06 16.1384L-1.46579e-06 3.84247C-1.46579e-06 1.72033 1.72033 -6.82559e-16 3.84247 -6.82559e-16Z" fill="#FFFFFF" fill-rule="nonzero" fill-opacity="1" transform="matrix(0.94034 -0.340238 0.339733 0.941737 522.606 445.757)"/><text fill="#000000" fill-opacity="1" font-family="Arial,Arial_MSFontService,sans-serif" font-style="normal" font-variant="normal" font-weight="400" font-stretch="normal" font-size="16" text-anchor="start" direction="ltr" writing-mode="lr-tb" unicode-bidi="normal" text-decoration="none" transform="matrix(0.722645 -0.26147 0.261082 0.723719 530.776 457)">ATTENDED</text><path d="M45.3359 0 352.512 0" stroke="#000000" stroke-width="3.84202" stroke-linecap="butt" stroke-linejoin="miter" stroke-miterlimit="4" stroke-opacity="1" fill="none" fill-rule="nonzero" transform="matrix(-0.98092 -0.19441 0.194121 -0.982378 1140.16 461.992)"/><path d="M-19.1042 0-21.2269 7.07562 0 0-21.2269-7.07562Z" fill="#000000" fill-rule="nonzero" fill-opacity="1" transform="matrix(-0.98092 -0.19441 0.194121 -0.982378 775.631 389.747)"/><path d="M69.1924 0C71.3143 -6.8248e-16 73.0345 1.72013 73.0345 3.84202L73.0345 16.1365C73.0345 18.2584 71.3143 19.9785 69.1924 19.9785L3.84202 19.9785C1.72013 19.9785-1.46562e-06 18.2584-1.46562e-06 16.1365L-1.46562e-06 3.84202C-1.46562e-06 1.72013 1.72013 -6.8248e-16 3.84202 -6.8248e-16Z" fill="#FFFFFF" fill-rule="nonzero" fill-opacity="1" transform="matrix(0.98092 0.19441 -0.194121 0.982378 911.146 406.407)"/><text fill="#000000" fill-opacity="1" font-family="Arial,Arial_MSFontService,sans-serif" font-style="normal" font-variant="normal" font-weight="400" font-stretch="normal" font-size="16" text-anchor="start" direction="ltr" writing-mode="lr-tb" unicode-bidi="normal" text-decoration="none" transform="matrix(0.753744 0.149385 -0.149164 0.754864 912.311 420)">ATTENDED</text><path d="M346.289-360.296C346.289-338.23 328.401-320.341 306.334-320.341 284.268-320.341 266.379-338.23 266.379-360.296 266.379-382.363 284.268-400.251 306.334-400.251 328.401-400.251 346.289-382.363 346.289-360.296Z" stroke="#000000" stroke-width="3.07345" stroke-linecap="butt" stroke-linejoin="miter" stroke-miterlimit="4" stroke-opacity="1" fill="#FCDC00" fill-rule="nonzero" fill-opacity="1" transform="matrix(1 0 0 1.00149 480.943 508.385)"/><text fill="#000000" fill-opacity="1" font-family="Arial,Arial_MSFontService,sans-serif" font-style="normal" font-variant="normal" font-weight="400" font-stretch="normal" font-size="50" text-anchor="start" direction="ltr" writing-mode="lr-tb" unicode-bidi="normal" text-decoration="none" transform="matrix(0.702331 0 0 0.703375 759.971 157)">Jim</text><path d="M290.171-127.263C290.171-105.197 272.283-87.3082 250.216-87.3082 228.15-87.3082 210.261-105.197 210.261-127.263 210.261-149.329 228.15-167.218 250.216-167.218 272.283-167.218 290.171-149.329 290.171-127.263Z" stroke="#000000" stroke-width="3.07345" stroke-linecap="butt" stroke-linejoin="miter" stroke-miterlimit="4" stroke-opacity="1" fill="#73D8FF" fill-rule="nonzero" fill-opacity="1" transform="matrix(1 0 0 1.00149 480.943 508.385)"/><text fill="#000000" fill-opacity="1" font-family="Arial,Arial_MSFontService,sans-serif" font-style="normal" font-variant="normal" font-weight="400" font-stretch="normal" font-size="50" text-anchor="start" direction="ltr" writing-mode="lr-tb" unicode-bidi="normal" text-decoration="none" transform="matrix(0.321151 0 0 0.321629 704.38 376)">Internal</text><text fill="#000000" fill-opacity="1" font-family="Arial,Arial_MSFontService,sans-serif" font-style="normal" font-variant="normal" font-weight="400" font-stretch="normal" font-size="50" text-anchor="start" direction="ltr" writing-mode="lr-tb" unicode-bidi="normal" text-decoration="none" transform="matrix(0.321151 0 0 0.321629 702.596 395)">Meeting</text><path d="M-33.4969-10.3255C-33.4969 11.741-51.3853 29.6293-73.4517 29.6293-95.5181 29.6293-113.406 11.741-113.406-10.3255-113.406-32.3919-95.5181-50.2803-73.4517-50.2803-51.3853-50.2803-33.4969-32.3919-33.4969-10.3255Z" stroke="#000000" stroke-width="3.07345" stroke-linecap="butt" stroke-linejoin="miter" stroke-miterlimit="4" stroke-opacity="1" fill="#FCDC00" fill-rule="nonzero" fill-opacity="1" transform="matrix(1 0 0 1.00149 480.943 508.385)"/><text fill="#000000" fill-opacity="1" font-family="Arial,Arial_MSFontService,sans-serif" font-style="normal" font-variant="normal" font-weight="400" font-stretch="normal" font-size="50" text-anchor="start" direction="ltr" writing-mode="lr-tb" unicode-bidi="normal" text-decoration="none" transform="matrix(0.579272 0 0 0.580133 377.715 506)">Pam</text><path d="M699.168-46.3238C699.168-24.2573 681.28-6.36895 659.214-6.36895 637.147-6.36895 619.259-24.2573 619.259-46.3238 619.259-68.3902 637.147-86.2786 659.214-86.2786 681.28-86.2786 699.168-68.3902 699.168-46.3238Z" stroke="#000000" stroke-width="3.07345" stroke-linecap="butt" stroke-linejoin="miter" stroke-miterlimit="4" stroke-opacity="1" fill="#FCDC00" fill-rule="nonzero" fill-opacity="1" transform="matrix(1 0 0 1.00149 480.943 508.385)"/><text fill="#000000" fill-opacity="1" font-family="Arial,Arial_MSFontService,sans-serif" font-style="normal" font-variant="normal" font-weight="400" font-stretch="normal" font-size="50" text-anchor="start" direction="ltr" writing-mode="lr-tb" unicode-bidi="normal" text-decoration="none" transform="matrix(0.420198 0 0 0.420822 1108.05 468)">Dwight</text></g></g></g></g></g></svg>